<?xml version="1.0" encoding="UTF-8"?>
<svg id="Layer_1" xmlns="http://www.w3.org/2000/svg" xmlns:xlink="http://www.w3.org/1999/xlink" viewBox="0 0 792 612">
  <defs>
    <style>
      .cls-1 {
        fill: none;
      }

      .cls-2 {
        fill: #7b6e4c;
      }

      .cls-3 {
        fill: #886729;
      }

      .cls-4 {
        fill: url(#linear-gradient);
      }

      .cls-5 {
        fill: #6f8237;
      }

      .cls-6 {
        fill: #fff;
      }
    </style>
    <linearGradient id="linear-gradient" x1="395.9" y1="388.5" x2="395.9" y2="143.84" gradientUnits="userSpaceOnUse">
      <stop offset="0" stop-color="#fff"/>
      <stop offset="1" stop-color="#ede53f"/>
    </linearGradient>
  </defs>
  <path class="cls-6" d="M396.11,395.09c-74.59.1-129.18-60.73-129.07-129.02.12-72.84,60.56-128.81,128.88-128.79,68.38.01,128.88,56.05,128.81,128.83.29,67.55-53.6,128.88-128.62,128.98Z"/>
  <g>
    <path class="cls-2" d="M396.26,129.13c-75.91-.11-137.44,61.13-137.53,136.88-.08,75.6,61.23,137.04,136.8,137.2,73.28.16,136.97-58.17,137.54-136.91.07-75.59-61.24-137.06-136.82-137.17ZM396.11,395.09c-74.59.1-129.18-60.73-129.07-129.02.12-72.84,60.56-128.81,128.88-128.79,68.38.01,128.88,56.05,128.81,128.83.29,67.55-53.6,128.88-128.62,128.98Z"/>
    <g>
      <path class="cls-4" d="M518.35,266.28c.07-67.48-54.66-122.35-122.13-122.45-67.76-.1-122.69,54.57-122.76,122.19-.07,67.48,54.66,122.33,122.12,122.47,65.41.14,122.26-51.93,122.78-122.21Z"/>
      <path class="cls-1" d="M348.95,168.34c2.95-2.14,5.43-5.16,10.24-5.55-3.8,3.26-7.02,6.03-10.1,8.68-3.44-2.43-6.9-4.87-10.63-7.51,4.15.18,7.27,2.12,10.49,4.38ZM320.78,173.37c3.07,1.09,6.15,2.17,9.4,3.32,2.72-1.81,5.6-3.73,9.69-3.9-3.54,2.49-6.7,4.7-9.97,6.99-3.16-1.9-6.29-3.79-9.43-5.69.1-.24.21-.49.31-.73ZM411.12,287.91c-.59-1.72-1.23-3.49-3.86-3.27-1.67.14-2.49-.93-2.55-2.59-.03-.65-.19-1.29-.3-2.02-2.71.23-5.15.44-7.92.68-1.17,2.26-2.42,4.66-4.05,7.8-1.7-2.84-3.07-5.14-4.57-7.64-1.1.49-2.42,1.08-3.74,1.67q-1.85-3.92-4.29-4.9c-.39,3-2.72,4.11-5.11,5.16-4.95-3.97-6.62-3.81-8.05,1.02-.86-.37-1.68-.75-2.52-1.09-1.51-.62-2.75-.27-3.54,1.18-.66,1.21.08,3.55,1.58,3.76,3.71.54,5.29,3.13,6.84,5.98.3.54,1.1.79,1.52,1.3.49.59,1.31,1.53,1.13,1.94-1.24,2.79.9,3.65,2.5,4.94,1.1.89,2.01,2,2.95,2.94-1.77,1.61-3.13,2.84-4.65,4.23,1.55.9,2.62,1.53,4.11,2.4-1.99,1.18-5.05-.52-5.05,2.29,0,1.63,1.43,3.25,2.21,4.86-.67.31-1.85.87-3.04,1.42-1.22.56-2.44,1.11-3.61.79-2.63-1.01-5.26-2.02-8.17-3.14.29-.59.58-1.15.83-1.72,1.39-3.1.59-4.52-2.8-5.16-.68-.13-1.56-.4-1.9-.91-1.37-2.07-2.99-1.73-4.68-.71-1.66,1-3.25,1.9-4.54,2.9h-7.19c-.83-2-1.58-2.9-2.09-3.85,1.85-2.8,3.53-5.32,5.29-7.99-1.08-3.17-2.18-6.39-3.34-9.82-1.16.33-2.19.62-3.25.92-.1,3.11,1.12,6.24-.94,9.49-1-.77-1.77-1.46-2.64-2.02-.86-.56-1.82-.98-2.73-1.46-.4.82-.81,1.64-1.18,2.47-.11.24-.03.56-.11.82-.62,2.29-1.66,3.08-3.41,2.6-2.18-.59-3.02-2.15-2.35-4.41.19-.65.48-1.26.67-1.75-1.6-2.57-3.66-1.85-5.12-.64-1.4,1.16-2.19,3.05-3.19,4.53,1.33,4.12.34,5.63-4.32,6.83-2.39.62-3.63-.76-4.23-4.79-2.45-.56-4.94-1.13-7.62-1.74-.09-1.01-.18-1.91-.26-2.81-.26-.11-.6-.36-.72-.28-2.54,1.78-4.51-.21-6.48-1.19-.7-.35-1.14-1.9-1.12-2.89.03-1.48.58-2.95.87-4.24,2.35-.8,4.48-1.53,6.65-2.28-.63-.9-1.12-1.73-1.72-2.46-2.49-2.99-2.48-2.96-.29-6.22.32-.48.34-1.18.44-1.79.14-.87.24-1.74.4-3,1.79.73,3.13,1.28,5.02,2.06,1.22-1.72,2.44-3.43,3.97-5.59.53.16,1.63.48,2.88.85,1.93-1.94,4.68-3.42,4.38-6.66,2.69-1.39,5.2-2.69,8-4.13-.56-1.41-1.24-2.49-1.36-3.63-.11-1.08.39-2.22.62-3.37-2.1-.29-2.36,1.34-2.82,2.54-.79,2.03-1.83,3.02-4.09,1.89-2.02-1.02-2.62.73-3.47,2.17-.88-.35-1.76-.69-2.91-1.15-2.07,3.16-4.19,6.4-6.6,10.09-.89-1.28-1.71-1.97-1.87-2.8-.68-3.44-3.22-4.81-6.83-6.16-.93,1.3-2.06,2.86-3.34,4.65-2.16-1.99-4-1.5-5.7.05-1.62-2.11-.7-4.01.54-5.01,2.31-1.87.62-4.34,1.52-6.32-2.44-3.06-.22-4.78,2.09-6.4-.22-1.61-.46-3.08-.63-4.56-.37-3.16-.17-3.39,3.05-3.93.39-.07.77-.24,1.29-.4.28-1.61.56-3.23.93-5.38,2.26-.82,4.8-1.73,8-2.89.69-.94,2.32-2.32,1.71-4.78-.11-.45.86-1.35,1.51-1.77,1.41-.92,3.51-1.04,3.25-3.61-.05-.46,1.36-1.07,2.23-1.71-1.95-2.65-3.99.62-6.04-.84.07-2,.32-4.18,1.65-6.24.56-.86.93-2.09.83-3.09-.28-2.86-1.35-5.79,2.77-7.74-.4-.25-.8-.5-1.2-.76-1.49.14-2.99.29-4.95.47.22-1.43.19-2.83.66-4.04,1.08-2.77,3.6-3.65,6.46-2.47,1.2.5,2.28,1.81,4.03.45-.2-.99-.41-2.11-.71-3.6,1.11.73,2.02,1.26,2.86,1.88,2.87,2.1,5.84.44,8.77.26.32-.02.85-.5.87-.79.2-3.22,2.92-3.94,5.05-5.31.77-.49,1.25-1.43,2.12-2.46,1.13,1.23,2,2.18,2.87,3.13,1.5-.28,2.87-.48,4.21-.78,2.1-.47,2.73-1.38,2.47-3.51-.08-.68-.38-1.34-.42-2.02-.09-1.83.76-2.7,2.66-2.99,2.34-.36,4.62-1.13,7.26-1.8.02.05.69.93.49,1.23-1.53,2.29.04,5.03-1.35,7.45-.84,1.46.71,2.68,2.38,3.45.9-1.04,1.76-2.05,2.57-2.99-.47-1.75-1.09-3.31-1.29-4.91-.33-2.67.25-3.21,2.89-3.23,4.05-.03,5.59-2.54,3.9-6.46,2.98-2.93,9.53-2.39,8.79-8.9q4.07-2.01,8.4-1.15c.03.48.05,1.01.1,1.54.05.53.11,1.05.19,1.77,1.57.25,3.01.47,4.6.73.64-2.45,1.26-4.83,1.93-7.41,1.67.3,3.13.56,4.55.81,1.04-1.27,1.82-2.59,2.93-3.51,1.67-1.37,2.19.83,2.81,1.17,2.61-.95,4.81-1.95,7.11-2.52,1.42-.35,3.13-.32,3.05,2.09-.02.54.41,1.4.87,1.61,2.84,1.31,3.5,3.63,2.89,6.81,2.4-.64,4.05-.48,5.14,1.74.82,1.67,2.7,1.61,4.02.67,1.6-1.14,3-1.1,4.44-.02,1.2-1.14,2.2-2.08,3.53-3.34,1.39.82,2.95,1.45,4.12,2.51,1.57,1.41,3.11,1.9,5.25,1.74,3.74-.28,4.73.71,5.21,4.21.48,3.49,2.66,6.85,6.13,9.34,1.66-1.07,3.24-2.7,5.1-3.14,1.83-.43,3.93.34,5.98.59,1.84-3.44,4.89-4.94,8.74-5.14,5.15-.27,6.78,3.97,9.5,7.1-1.64.84-3.03,1.73-4.55,2.29-1.87.69-2.32,1.84-1.62,3.56.71,1.76,2.3,2.4,4.1,1.67.37-.15.68-.48,1.01-.72,1.31-.94,2.8-1.17,3.53.4.67,1.47,0,2.96-1.45,3.92-1.42.95-2.82,1.93-4.24,2.9.45,1,.6,1.55.9,1.99.47.68,1.03,1.28,1.67,2.05,1.17-.39,2.29-.76,3.3-1.09.37.35.67.5.72.71.69,2.82.42,5.29-1.95,7.43-.88.79-1.09,2.32-1.81,4.02-.46.08-1.52.19-2.54.49-1.58.46-2.34,1.61-1.81,3.19.51,1.5,1.46,2.73,3.38,2.25.79-.2,1.58-.46,2.34-.76.24-.09.38-.41.6-.56,5.23-3.7,7.35-2.79,9.12,3.75-1.45.56-3.13,1.14-5.13,1.84v3.93c1,0,1.86.02,2.53,0,3.02-.12,3.29-.14,3.71,2.91.23,1.68,1.04,2.78,2.61,3.51,1.23.57,2.36,1.46,3.54,2.23-.33,3.05-2.57,3.87-4.62,4.88-1.99,3.91,2.2,4.32,4.06,6.72-1.09.85-2.19,1.52-3.04,2.43-.59.63-1.18,1.61-1.14,2.4.06,1.32,1.17,1.68,2.44,1.64,1.64-.06,3.28-.01,5.38-.01-.26,2.61-.51,5.07-.8,7.92,2.85-.43,5.1-1.46,7.54-.59,1.48.53,2.52,1.01,2.4,2.79-.06.81-.17,1.77.19,2.41,1.5,2.68.39,4.48-2.18,6.31-1.76-.46-3.94-.82-5.95-1.61-2.85-1.13-3.96,1.05-5.28,2.5-2.94.23-6.23-3.89-8.33,1.02,2.96,5.14,4.92,5.28,11.61.69.72,3.12,3.23,2.5,5.17,2.08,2.38-.51,3.38.35,4.01,2.54-.8,1.17-1.89,2.32-2.4,3.68-.52,1.37-.45,2.96-.65,4.53,2.58,1,3.58-1.97,5.83-1.98.88,1.38,1.9,2.8,2.71,4.32,1.57,2.94.13,8.99-3,10.22-2.57,1.01-3.32,2.6-3.8,4.84-.11.52-.41,1.01-.7,1.69-1.25-.22-2.43-.44-3.6-.64-.75,1.88-1.5,3.76-2.12,5.34-1.92.54-3.42.97-4.93,1.39-2.19.61-3.18,2.01-3.02,4.3.13,1.94-.77,3.34-2.75,3.5-1.99.16-3.28-.89-3.98-2.89-.37-1.06-1.2-2.35-2.15-2.74-2.5-1.03-2.99-2.6-2.18-4.96.21-.62.2-1.32.27-1.84-2.53-1.73-4.87-3.33-7.78-5.32-.26.09-1.23.43-2.66.92-1.42-2.85-2.82-5.65-4.28-8.58-2.38.13-4.77-.46-7.04,1.05-1.16.77-2.45.5-3.78-.54-.82-.64-2.86-.71-3.71-.11-2.15,1.51-4.01,1.26-6.17.26-2.26-1.05-4.63-1.77-7.58-.36.51,1.41.99,2.74,1.53,4.26,2.08-.49,3.64-.48,5.23.81.98.79,2.93,1.05,4.19.68,3.66-1.07,4.96,1.34,6.4,3.87,1.49-.11,2.97-.34,4.44-.3,1.96.05,3.32,1.39,3.28,3.14-.07,2.82-.74,5.63-1.14,8.39-1.92.14-3.44.21-4.94.36-3.65.39-4.04,1.03-2.92,4.99-.64.55-1.31,1.23-2.08,1.77-1.77,1.25-3.79,1.23-4.55-.5-1.37-3.13-4.46-4.35-6.6-6.59-1.13-1.18-2.92-2.21-4.6-.17-.33.41-1.34.2-1.98.43-1.82.63-3.32,1.48-2.68,3.9.2.78.3,1.78-.03,2.44-.37.72-1.3,1.65-1.97,1.64-1.91-.02-3.83-.38-5.72-.77-2.02-.41-3.67-3.49-3.07-5.62.21-.75.69-1.43,1.07-2.19-1.59-2.13-4.07-3.23-4.71-6.13-.46-2.08-2.58-.2-3.87-.31-3.37-5.98-3.34-6.12,1.49-8.63.02-2.73-3.29-2.72-4.21-5.27,1.27-1.25,2.69-2.64,4.2-4.12Z"/>
      <path class="cls-5" d="M411.13,297.3c-4.83,2.51-4.85,2.65-1.49,8.63,1.29.12,3.42-1.76,3.87.31.64,2.9,3.12,4,4.71,6.13-.38.76-.86,1.44-1.07,2.19-.61,2.13,1.05,5.21,3.07,5.62,1.89.38,3.81.75,5.72.77.68,0,1.6-.92,1.97-1.64.34-.66.24-1.67.03-2.44-.64-2.41.86-3.27,2.68-3.9.65-.22,1.65-.02,1.98-.43,1.68-2.04,3.47-1.01,4.6.17,2.14,2.24,5.23,3.46,6.6,6.59.75,1.73,2.78,1.75,4.55.5.77-.54,1.44-1.22,2.08-1.77-1.12-3.96-.72-4.61,2.92-4.99,1.51-.16,3.02-.23,4.94-.36.41-2.76,1.08-5.57,1.14-8.39.04-1.75-1.32-3.08-3.28-3.14-1.47-.04-2.95.19-4.44.3-1.44-2.54-2.74-4.94-6.4-3.87-1.26.37-3.21.11-4.19-.68-1.6-1.29-3.16-1.3-5.23-.81-.55-1.52-1.03-2.85-1.53-4.26,2.95-1.4,5.32-.68,7.58.36,2.15,1,4.02,1.25,6.17-.26.85-.6,2.89-.52,3.71.11,1.33,1.04,2.62,1.31,3.78.54,2.28-1.51,4.67-.92,7.04-1.05,1.46,2.93,2.86,5.73,4.28,8.58,1.43-.5,2.4-.83,2.66-.92,2.91,1.99,5.26,3.59,7.78,5.32-.07.52-.06,1.22-.27,1.84-.81,2.36-.32,3.92,2.18,4.96.95.39,1.78,1.68,2.15,2.74.7,2.01,1.98,3.05,3.98,2.89,1.98-.15,2.88-1.55,2.75-3.5-.16-2.29.84-3.69,3.02-4.3,1.51-.42,3.01-.85,4.93-1.39.63-1.57,1.38-3.46,2.12-5.34,1.17.21,2.35.42,3.6.64.29-.69.59-1.17.7-1.69.48-2.24,1.23-3.84,3.8-4.84,3.13-1.22,4.57-7.28,3-10.22-.82-1.52-1.84-2.93-2.71-4.32-2.25,0-3.25,2.98-5.83,1.98.2-1.57.13-3.16.65-4.53.51-1.36,1.61-2.51,2.4-3.68-.63-2.19-1.63-3.06-4.01-2.54-1.95.42-4.45,1.04-5.17-2.08-6.69,4.59-8.65,4.45-11.61-.69,2.1-4.91,5.39-.79,8.33-1.02,1.32-1.45,2.43-3.63,5.28-2.5,2.01.8,4.19,1.15,5.95,1.61,2.57-1.83,3.68-3.63,2.18-6.31-.36-.64-.25-1.61-.19-2.41.12-1.78-.92-2.26-2.4-2.79-2.45-.88-4.7.15-7.54.59.29-2.85.53-5.31.8-7.92-2.09,0-3.74-.05-5.37.01-1.27.05-2.38-.32-2.44-1.64-.03-.79.56-1.77,1.14-2.4.85-.91,1.96-1.59,3.04-2.43-1.86-2.4-6.04-2.81-4.05-6.72,2.06-1,4.32-1.82,4.65-4.88-1.18-.77-2.26-1.66-3.49-2.23-1.57-.73-2.28-1.82-2.51-3.51-.42-3.05-.9-3.03-3.91-2.91-.66.03-1.53,0-2.53,0v-3.93c2-.7,3.69-1.28,5.13-1.84-1.77-6.54-4.09-7.46-9.33-3.75-.22.16-.26.47-.5.56-.76.29-1.5.56-2.29.76-1.92.48-2.84-.75-3.35-2.25-.53-1.58.24-2.73,1.83-3.19,1.01-.29,2.08-.4,2.54-.49.73-1.69.94-3.22,1.82-4.02,2.37-2.13,2.64-4.61,1.95-7.43-.05-.21-.36-.36-.72-.71-1.01.33-2.12.7-3.3,1.09-.63-.77-1.2-1.37-1.67-2.05-.3-.44-.46-.98-.9-1.99,1.42-.97,2.82-1.95,4.24-2.9,1.45-.97,2.13-2.46,1.45-3.92-.72-1.58-2.22-1.34-3.53-.4-.34.24-.64.57-1.01.72-1.8.73-3.38.09-4.1-1.67-.7-1.72-.25-2.87,1.62-3.56,1.52-.56,2.91-1.45,4.55-2.29-2.72-3.12-4.35-7.37-9.5-7.1-3.85.2-6.9,1.7-8.74,5.14-2.05-.25-4.16-1.02-5.98-.59-1.86.44-3.44,2.06-5.1,3.14-3.47-2.49-5.65-5.85-6.13-9.34-.48-3.5-1.47-4.49-5.21-4.21-2.14.16-3.68-.34-5.25-1.74-1.17-1.05-2.73-1.68-4.12-2.51-1.33,1.26-2.33,2.2-3.53,3.34-1.43-1.08-2.84-1.12-4.44.02-1.31.94-3.2,1-4.02-.67-1.09-2.22-2.75-2.38-5.14-1.74.6-3.17-.06-5.5-2.89-6.81-.45-.21-.88-1.07-.87-1.61.08-2.4-1.63-2.44-3.05-2.09-2.31.57-4.51,1.57-7.11,2.52-.62-.34-1.14-2.54-2.81-1.17-1.11.92-1.9,2.24-2.93,3.51-1.43-.25-2.88-.52-4.55-.81-.67,2.58-1.29,4.96-1.93,7.41-1.59-.25-3.03-.48-4.6-.73-.08-.72-.14-1.24-.19-1.77-.05-.53-.07-1.05-.1-1.54q-4.33-.86-8.4,1.15c.74,6.51-5.81,5.98-8.79,8.9,1.69,3.92.15,6.43-3.9,6.46-2.64.02-3.22.55-2.89,3.23.2,1.61.81,3.16,1.29,4.91-.81.94-1.68,1.94-2.57,2.99-1.67-.77-3.22-1.99-2.38-3.45,1.39-2.42-.18-5.16,1.35-7.45.2-.3-.46-1.18-.49-1.23-2.63.67-4.91,1.44-7.26,1.8-1.9.29-2.75,1.16-2.66,2.99.03.68.34,1.34.42,2.02.26,2.13-.37,3.03-2.47,3.51-1.34.3-2.71.51-4.21.78-.87-.95-1.74-1.9-2.87-3.13-.87,1.03-1.35,1.97-2.12,2.46-2.13,1.37-4.84,2.09-5.05,5.31-.02.29-.55.77-.87.79-2.93.18-5.9,1.84-8.77-.26-.84-.62-1.75-1.15-2.86-1.88.29,1.5.51,2.61.71,3.6-1.75,1.37-2.83.05-4.03-.45-2.86-1.18-5.39-.31-6.46,2.47-.47,1.21-.44,2.6-.66,4.04,1.96-.19,3.46-.33,4.95-.47.4.25.8.5,1.2.76-4.12,1.95-3.06,4.88-2.77,7.74.1,1.01-.27,2.23-.83,3.09-1.33,2.06-1.58,4.24-1.65,6.24,2.05,1.45,4.09-1.82,6.04.84-.87.63-2.28,1.24-2.23,1.71.26,2.58-1.84,2.7-3.25,3.61-.65.42-1.62,1.32-1.51,1.77.62,2.46-1.01,3.84-1.71,4.78-3.21,1.16-5.74,2.07-8,2.89-.37,2.15-.65,3.76-.93,5.38-.52.16-.89.33-1.29.4-3.23.54-3.42.76-3.05,3.93.17,1.48.4,2.94.63,4.56-2.32,1.63-4.53,3.35-2.09,6.4-.9,1.98.79,4.44-1.52,6.32-1.23,1-2.16,2.9-.54,5.01,1.7-1.55,3.55-2.04,5.7-.05,1.28-1.78,2.41-3.35,3.34-4.65,3.61,1.35,6.15,2.71,6.83,6.16.16.82.98,1.51,1.87,2.8,2.41-3.69,4.53-6.93,6.6-10.09,1.15.46,2.03.8,2.91,1.15.86-1.44,1.45-3.19,3.47-2.17,2.25,1.13,3.3.14,4.09-1.89.47-1.2.72-2.83,2.82-2.54-.24,1.15-.73,2.29-.62,3.37.11,1.14.8,2.22,1.36,3.63-2.8,1.45-5.31,2.75-8,4.13.29,3.24-2.46,4.72-4.38,6.66-1.25-.37-2.35-.7-2.88-.85-1.54,2.16-2.75,3.87-3.97,5.59-1.88-.77-3.23-1.32-5.02-2.06-.16,1.26-.26,2.14-.4,3-.1.61-.12,1.31-.44,1.79-2.19,3.26-2.2,3.23.29,6.22.61.73,1.09,1.55,1.72,2.46-2.17.74-4.3,1.47-6.65,2.28-.29,1.29-.83,2.76-.87,4.24-.02.99.42,2.54,1.12,2.89,1.97.98,3.94,2.96,6.48,1.19.11-.08.46.17.72.28.08.89.17,1.8.26,2.81,2.68.61,5.17,1.18,7.62,1.74.6,4.03,1.84,5.4,4.23,4.79,4.66-1.2,5.65-2.71,4.32-6.83,1-1.48,1.79-3.37,3.19-4.53,1.46-1.21,3.52-1.94,5.12.64-.19.48-.48,1.1-.67,1.75-.67,2.26.17,3.81,2.35,4.41,1.74.48,2.79-.32,3.41-2.6.07-.26,0-.58.11-.82.37-.84.78-1.65,1.18-2.47.91.48,1.87.9,2.73,1.46.86.56,1.64,1.25,2.64,2.02,2.05-3.25.83-6.37.94-9.49,1.06-.3,2.08-.58,3.25-.91,1.17,3.43,2.26,6.66,3.34,9.83-1.76,2.66-3.44,5.16-5.29,7.96.51.95,1.26,1.85,2.09,3.85h7.19c1.28-1,2.88-1.9,4.54-2.9,1.7-1.02,3.31-1.38,4.68.69.34.51,1.22.79,1.9.92,3.39.64,4.19,2.07,2.8,5.17-.26.57-.54,1.13-.83,1.72,2.91,1.12,5.54,2.13,8.17,3.14,1.16.32,2.39-.22,3.61-.78,1.19-.54,2.36-1.1,3.04-1.42-.78-1.61-2.21-3.24-2.21-4.86,0-2.81,3.06-1.12,5.05-2.29-1.49-.87-2.56-1.49-4.11-2.4,1.52-1.38,2.88-2.62,4.65-4.23-.93-.94-1.85-2.05-2.95-2.94-1.6-1.29-3.73-2.15-2.5-4.94.18-.41-.64-1.35-1.13-1.94-.42-.51-1.23-.75-1.52-1.3-1.55-2.85-3.13-5.44-6.84-5.98-1.51-.22-2.24-2.56-1.58-3.76.79-1.45,2.03-1.8,3.54-1.18.84.34,1.66.72,2.52,1.09,1.43-4.83,3.1-4.99,8.05-1.02,2.39-1.05,4.72-2.16,5.11-5.16q2.43.98,4.29,4.9c1.32-.59,2.64-1.18,3.74-1.67,1.5,2.5,2.87,4.8,4.57,7.64,1.63-3.14,2.88-5.54,4.05-7.8,2.76-.24,5.21-.45,7.92-.68.11.73.28,1.37.3,2.02.07,1.67.88,2.73,2.55,2.59,2.63-.22,3.27,1.55,3.86,3.27-1.51,1.48-2.93,2.88-4.2,4.12.92,2.55,4.24,2.54,4.21,5.27Z"/>
      <path class="cls-5" d="M422.21,336.79c-4.4-.59-8.84-1-13.27-1.34-7.77-.59-7.45-2.75-8.07-8.17-.68-5.99.98-11.74,4.06-16.75,2.43-3.95,1.4-7.57,1.09-12.13-2.14,2.93-3.83,5.25-6.03,8.27.13-7.72,3.44-13.19,7.22-18.34-2.41-2.99-4.45-6.2-8.77-4.05-1.17,1.96-1.87,4.6-3.53,5.58-2.67,1.57-2.73,3.85-3.22,6.19-.22,1.05-.33,2.14-.49,3.2-.15,0-.31-.02-.46-.02-1-4.43-2-8.87-2.93-12.99-2.1-1.02-3.78-1.82-5.39-2.6-1.29.78-1.51,1.56-1.06,3.09,1.01,3.45,1.59,7.03,2.25,10.57.15.82-.08,1.71-.2,3.52-3.98-4.36-7.42-7.95-10.63-11.73-1.34-1.57-2.61-2.73-4.96-2.29.48.59.97,1.08,1.33,1.64,2.16,3.42,6.38,5.53,6.55,10.23,3.32,2.37,3.49,6.5,5.37,9.53,4.41,7.09,4.96,14.22,2.98,21.94-.67,2.61-2.25,4.18-4.76,5.32-5.05,2.29-8.97,4.89-13.86,7.52-1.74.94-3.84,2.93-2.88,4.53.96,1.61,3.27,1.2,5.27,1.16,8.75-.16,16.5-.57,25.25-.63,4.76-.03,11.4,1.05,15.7,3.2,3.96,1.98,5.45,5.43,4.4,9.72-1.12,4.56-8.58,7.16-8.58,7.16,0,0-5.99,3.09-5.64,5.61.45,3.24,2.54,3.73,5.77,4.43,13.06,2.81,34.65,2.03,35.55,2,16.04-6.25,30.58-15.79,42.65-27.94-2.94-.96-6.56-2.19-8.88-2.89-17.02-5.17-34.1-10.14-51.79-12.52Z"/>
      <path class="cls-5" d="M385.75,363.25c2.25-1.22,2.14-3.57-.1-4.85-2.97-1.71-9.43-.82-13.44-.57-6.35.38-12.5-.21-18.17-3.4-5.32-3-5.66-7.63-.62-11.17,2.59-1.82,5.52-3.17,8.38-4.58,2.15-1.07,4.42-1.9,6.64-2.84-14.43.57-52.2,9.66-61.64,14.24,16.37,17.35,37.75,29.91,61.81,35.38-.07-.93-.1-1.41-.16-1.87-.59-5.14,3.66-12.93,17.29-20.33Z"/>
      <path class="cls-3" d="M487.82,337.08c-5.44.55-10.58.6-14.02-4.72-.36-.56-1.06-.9-1.52-1.41-3.32-3.61-7.46-3.89-11.9-2.98-.94.19-1.89.65-2.82.61-4.15-.15-8.32-.28-12.44-.75-1.83-.21-3.86-.86-5.27-1.97-2.79-2.2-5.67-2.56-8.99-1.91-5.04.98-10.11,1.73-15.16,2.62-2.96.52-5.9,1.13-8.98,1.72.05,3.09,1.19,4.14,3.37,4.22,1.11.04,2.21.28,3.32.35,12.41.72,24.52,3.23,36.46,6.46,9.11,2.47,18.06,5.54,27.1,8.27,2.21.67,5.65,2.27,8.08,2.4,3.83-4.06,7.39-8.39,10.65-12.96-3.05-.04-5.48-.19-7.86.05Z"/>
      <path class="cls-3" d="M350.65,334.81c6.37-1.29,12.95-1.54,19.44-2.25,2.68-.29,5.5,0,8.12-1.93-1.63-2.25-3.39-3.49-5.98-3.45-3.9.07-7.72.02-11.14-2.51-1.07-.79-2.91-.63-4.42-.73-1.23-.09-2.56.37-3.71.08-3.27-.84-6.32-.18-9.39.84-1.03.34-2.36.97-3.17.61-3.46-1.55-6.78-.48-10.17.02-2.54.37-4.81.9-6.29,3.4-.82,1.4-2.28,2.41-3.4,3.64-1.5,1.66-3.25,2.57-5.54,2.14-3.66-.68-7.39-1.13-10.98-2.09-3.76-1.01-7.5-1-11.58-.97,3.39,5.34,7.19,10.39,11.34,15.12.16-.05.31-.1.45-.14,15.18-5.09,30.78-8.6,46.43-11.78Z"/>
      <path class="cls-5" d="M359.18,162.79c-4.81.39-7.29,3.41-10.24,5.55-3.22-2.26-6.33-4.2-10.49-4.38,3.73,2.64,7.19,5.08,10.63,7.51,3.08-2.65,6.3-5.41,10.1-8.68Z"/>
      <path class="cls-5" d="M339.87,172.79c-4.09.17-6.97,2.09-9.69,3.9-3.25-1.15-6.32-2.24-9.4-3.32-.1.24-.21.49-.31.73,3.14,1.89,6.27,3.78,9.43,5.69,3.27-2.29,6.43-4.51,9.97-6.99Z"/>
    </g>
  </g>
  <g>
    <path d="M259.32,425.34v-1.03c1.94.13,3.41.19,4.42.19,1.15,0,2.38-.06,3.71-.19.47,1.22.86,2.15,1.15,2.79.38.86,1.89,4.11,4.53,9.77,1.12,2.4,2.26,4.75,3.4,7.03l7.42-15.63c.45-.96.99-2.28,1.62-3.95,1.56.13,2.74.19,3.57.19.77,0,2.06-.06,3.88-.19v1.03c-.35.09-.61.16-.78.19-1.61.33-2.51.56-2.7.71-.3.23-.45.82-.45,1.76v.23l-.07,5.51c0,6.94.03,11.15.09,12.63.01.31.1.54.27.7.17.15,1.16.4,2.97.75.15.02.38.08.68.16v1.03c-2.09-.13-3.93-.19-5.52-.19s-3.54.06-5.76.19v-1.03c.45-.12.79-.2,1.03-.24,1.42-.27,2.22-.46,2.43-.57.2-.11.34-.26.41-.46.1-.34.16-1.28.16-2.82v-15.19c-1.05,2.09-3.44,7.12-7.14,15.08-1.02,2.19-1.77,3.87-2.26,5.03h-.99c-2.6-5.76-5.78-12.47-9.54-20.11l.23,16.21c0,1.29.1,2.02.31,2.21.21.19,1.08.41,2.63.68.17.03.44.09.8.17v1.03c-2.01-.13-3.63-.19-4.87-.19s-2.88.06-4.92.19v-1.03c.34-.09.59-.15.75-.17,1.53-.3,2.39-.56,2.58-.78.28-.32.42-1.12.43-2.38l.09-3.91c.06-3.57.09-7.03.09-10.39l-.02-2.12c0-.85-.05-1.38-.16-1.59-.1-.21-.27-.37-.5-.46-.44-.17-1.43-.38-2.96-.61-.22-.04-.54-.1-.97-.21Z"/>
    <path d="M327.43,423.9h1.1c1.57,4.02,3.49,8.59,5.78,13.69l4.05,8.86c.19.31.39.55.61.7.15.1,1,.38,2.56.83v1.03c-2.11-.13-3.67-.19-4.66-.19s-2.76.06-5.22.19v-1.03c1.4-.29,2.22-.52,2.45-.7.23-.17.35-.38.35-.61,0-.24-.12-.66-.37-1.24l-1.77-4.25c-2.46-.02-4.25-.04-5.37-.04l-4.76.04-1.83,4.4c-.3.71-.45,1.15-.45,1.32,0,.15.07.28.22.37.14.1.82.28,2.03.53.13.03.31.09.54.16v1.03c-1.98-.13-3.38-.19-4.19-.19-1.03,0-2.35.06-3.97.19v-1.03c1.05-.23,1.78-.49,2.17-.78.29-.22.59-.59.91-1.11.66-1.15,2.34-4.84,5.04-11.08l4.78-11.1ZM322.85,439.45c1.61.05,2.76.07,3.46.07.21,0,1.99-.02,5.34-.07l-4.4-10.44-4.39,10.44Z"/>
    <path d="M362.52,425.34v-1.03c1.47.13,2.63.19,3.47.19.68,0,1.9-.06,3.66-.19l4.94,6.18c.45.54,3.94,4.77,10.47,12.68.01-1.62.02-2.8.02-3.53,0-1.73-.05-4.89-.16-9.48-.05-2.15-.1-3.31-.17-3.5-.06-.19-.2-.35-.4-.5-.2-.15-1.01-.36-2.43-.63-.19-.03-.46-.1-.82-.19v-1.03c2.06.13,3.71.19,4.92.19s2.82-.06,4.91-.19v1.03c-.31.08-.54.13-.7.16-1.55.32-2.42.54-2.59.64-.13.07-.23.17-.31.31-.12.19-.2.53-.24,1.04-.01.22-.04,1.8-.08,4.74-.04,2.94-.06,5.79-.06,8.53,0,3.25.06,5.99.17,8.23l-1.13.52-7.25-9.01-9.52-11.45.09,10.29c.06,4.5.12,6.9.19,7.2.05.21.15.39.31.54.26.23,1.12.48,2.59.73.17.02.43.08.78.16v1.03c-1.78-.13-3.27-.19-4.49-.19-1.02,0-2.8.06-5.34.19v-1.03c.41-.09.71-.16.92-.21,1.39-.24,2.2-.47,2.42-.68.13-.1.22-.28.28-.54.12-.53.2-2.55.24-6.05.06-4.96.09-7.9.09-8.8,0-2.91-.04-4.53-.12-4.85-.05-.23-.2-.43-.45-.58-.25-.16-1.35-.4-3.29-.72-.21-.03-.52-.1-.94-.19Z"/>
    <path d="M423.67,423.9h1.1c1.57,4.02,3.49,8.59,5.78,13.69l4.05,8.86c.19.31.39.55.61.7.15.1,1,.38,2.56.83v1.03c-2.11-.13-3.67-.19-4.66-.19s-2.76.06-5.22.19v-1.03c1.4-.29,2.22-.52,2.45-.7.23-.17.35-.38.35-.61,0-.24-.12-.66-.37-1.24l-1.77-4.25c-2.46-.02-4.25-.04-5.37-.04l-4.76.04-1.83,4.4c-.3.71-.45,1.15-.45,1.32,0,.15.07.28.22.37.14.1.82.28,2.03.53.13.03.31.09.54.16v1.03c-1.98-.13-3.38-.19-4.19-.19-1.03,0-2.35.06-3.97.19v-1.03c1.05-.23,1.78-.49,2.17-.78.29-.22.59-.59.91-1.11.66-1.15,2.34-4.84,5.04-11.08l4.78-11.1ZM419.09,439.45c1.61.05,2.76.07,3.46.07.21,0,1.99-.02,5.34-.07l-4.4-10.44-4.39,10.44Z"/>
    <path d="M459.59,425.34v-1.03c2.3.13,4.8.19,7.5.19l7.76-.1c2.63,0,4.74.38,6.31,1.14s2.79,1.97,3.66,3.63c.87,1.66,1.3,3.59,1.3,5.79,0,4.06-1.38,7.41-4.14,10.06-2.76,2.64-6.47,3.97-11.12,3.97-.27,0-1.33-.03-3.18-.1s-2.95-.1-3.27-.1c-1.12,0-2.73.07-4.82.21v-1.03c1.89-.36,2.94-.57,3.16-.64.21-.07.37-.15.46-.24s.16-.22.19-.38c.06-.24.1-1.23.12-2.96.07-3.77.1-6.51.1-8.23l-.1-7.62.02-.59c0-.58-.17-.95-.5-1.11-.2-.12-1.35-.4-3.45-.85ZM467.02,446.93c1.88.23,3.46.35,4.73.35,1.98,0,3.62-.32,4.91-.96,1.84-.94,3.24-2.31,4.2-4.11s1.44-4.01,1.44-6.63c0-1.37-.16-2.62-.48-3.75s-.75-2.03-1.28-2.71c-.78-1-1.79-1.76-3.04-2.29-1.25-.53-3.06-.79-5.43-.79-1.43,0-3.11.09-5.05.26-.07,3.05-.1,6.51-.1,10.37,0,4.08.04,7.5.1,10.25Z"/>
    <path d="M518.88,423.9h1.1c1.57,4.02,3.49,8.59,5.78,13.69l4.05,8.86c.19.31.39.55.61.7.15.1,1,.38,2.56.83v1.03c-2.11-.13-3.67-.19-4.66-.19s-2.76.06-5.22.19v-1.03c1.4-.29,2.22-.52,2.45-.7.23-.17.35-.38.35-.61,0-.24-.12-.66-.37-1.24l-1.77-4.25c-2.46-.02-4.25-.04-5.37-.04l-4.76.04-1.83,4.4c-.3.71-.45,1.15-.45,1.32,0,.15.07.28.22.37.14.1.82.28,2.03.53.13.03.31.09.54.16v1.03c-1.98-.13-3.38-.19-4.19-.19-1.03,0-2.35.06-3.97.19v-1.03c1.05-.23,1.78-.49,2.17-.78.29-.22.59-.59.91-1.11.66-1.15,2.34-4.84,5.04-11.08l4.78-11.1ZM514.3,439.45c1.61.05,2.76.07,3.46.07.21,0,1.99-.02,5.34-.07l-4.4-10.44-4.39,10.44Z"/>
    <path d="M274.18,479.84l.47.84c-1.19.75-2.33,1.3-3.43,1.65s-2.23.53-3.39.53c-1.49,0-2.83-.34-4.05-1.02-1.21-.68-2.13-1.64-2.76-2.88-.62-1.24-.94-2.62-.94-4.12,0-2.47.8-4.48,2.41-6.05,1.61-1.57,3.74-2.35,6.38-2.35,1.63,0,3.44.33,5.43,1-.01.65-.02,1.14-.02,1.47,0,.95.06,1.94.17,2.99h-.93c-.27-1.3-.57-2.19-.88-2.68-.31-.49-.81-.88-1.51-1.17-.7-.29-1.55-.44-2.57-.44-2.15,0-3.76.76-4.85,2.29-.84,1.19-1.26,2.69-1.26,4.49,0,2.15.59,3.84,1.78,5.08,1.19,1.24,2.74,1.86,4.67,1.86.83,0,1.63-.11,2.42-.32.78-.21,1.74-.6,2.86-1.17Z"/>
    <path d="M286.14,474.77c0-2.43.78-4.42,2.35-5.98,1.57-1.56,3.58-2.34,6.04-2.34,2.29,0,4.11.69,5.46,2.07,1.35,1.38,2.03,3.27,2.03,5.69,0,2.68-.76,4.8-2.29,6.35s-3.53,2.33-6.02,2.33c-2.33,0-4.18-.7-5.54-2.11-1.36-1.41-2.04-3.41-2.04-6ZM288.57,474.44c0,2.45.54,4.28,1.61,5.51,1.07,1.23,2.42,1.84,4.06,1.84,1.08,0,2.04-.29,2.88-.86.84-.57,1.47-1.41,1.9-2.51s.64-2.32.64-3.65c0-1.67-.27-3.06-.82-4.17-.55-1.1-1.23-1.9-2.03-2.37-.81-.48-1.71-.72-2.72-.72-1.1,0-2.09.29-2.97.87-.87.58-1.52,1.42-1.93,2.52-.41,1.1-.62,2.28-.62,3.53Z"/>
    <path d="M312.77,467.44v-.66c.94.08,1.68.12,2.22.12.44,0,1.21-.04,2.34-.12l3.15,3.94c.29.35,2.52,3.05,6.69,8.1,0-1.04.01-1.79.01-2.25,0-1.1-.03-3.12-.1-6.05-.03-1.37-.06-2.11-.11-2.23-.04-.12-.13-.23-.25-.32-.13-.1-.65-.23-1.55-.4-.12-.02-.29-.06-.52-.12v-.66c1.32.08,2.37.12,3.14.12s1.8-.04,3.13-.12v.66c-.2.05-.35.08-.44.1-.99.21-1.54.34-1.65.41-.08.04-.15.11-.2.2-.07.12-.13.34-.16.67,0,.14-.02,1.15-.05,3.03-.03,1.88-.04,3.69-.04,5.45,0,2.07.04,3.82.11,5.25l-.72.33-4.63-5.75-6.07-7.31.06,6.56c.04,2.87.08,4.41.12,4.6.03.13.1.25.2.34.16.15.71.3,1.66.47.11.01.28.05.5.1v.66c-1.13-.08-2.09-.12-2.87-.12-.65,0-1.79.04-3.41.12v-.66c.26-.06.46-.1.59-.13.89-.16,1.4-.3,1.54-.43.08-.07.14-.18.18-.34.07-.34.12-1.63.16-3.87.04-3.17.06-5.04.06-5.62,0-1.86-.03-2.89-.08-3.1-.03-.15-.13-.27-.29-.37-.16-.1-.86-.25-2.1-.46-.13-.02-.33-.06-.6-.12Z"/>
    <path d="M351.54,471.02h-.84c-.19-.95-.41-1.64-.66-2.08-.24-.44-.62-.78-1.12-1.03-.5-.25-1.06-.37-1.68-.37-.88,0-1.58.25-2.1.73-.52.49-.78,1.08-.78,1.78,0,.62.21,1.15.64,1.61.42.46,1.45,1.04,3.09,1.74,1.64.7,2.76,1.43,3.35,2.17.58.76.88,1.61.88,2.55,0,.85-.22,1.63-.66,2.36s-1.1,1.31-1.99,1.74-1.84.65-2.86.65c-.7,0-1.39-.07-2.09-.2-.7-.13-1.54-.36-2.51-.69.11-1.04.17-2.43.17-4.15h.86c.24,1.11.5,1.89.76,2.33.26.44.66.81,1.19,1.09s1.12.43,1.75.43c.87,0,1.64-.24,2.29-.73.66-.49.99-1.17.99-2.06,0-.72-.24-1.36-.71-1.91-.48-.55-1.52-1.17-3.13-1.86-1.6-.69-2.67-1.36-3.21-1.99-.54-.63-.81-1.38-.81-2.25,0-.76.22-1.49.65-2.18.44-.69,1.08-1.24,1.93-1.64.85-.4,1.73-.6,2.64-.6,1.1,0,2.42.26,3.98.79-.04,1.08-.06,1.73-.06,1.96,0,.45.02,1.06.06,1.83Z"/>
    <path d="M368.26,473.73h2.69c1.04,0,1.65-.03,1.83-.08.19-.06.33-.17.45-.34.11-.17.26-.66.43-1.48.02-.08.05-.21.1-.38h.73c-.08,1.22-.12,2.16-.12,2.82s.04,1.61.12,2.8h-.73c-.21-1.07-.35-1.67-.4-1.8-.07-.18-.2-.31-.39-.38-.18-.08-.74-.12-1.65-.12h-3.04l.06,6.53h5.06c.64-.01,1.04-.04,1.2-.09.28-.1.53-.26.74-.48s.61-.86,1.19-1.92c.06-.1.15-.25.27-.46h.77c-.09.24-.55,1.63-1.38,4.18-2.7-.08-5.16-.12-7.38-.12-1.56,0-3.27.04-5.15.12v-.66l1.8-.39c.29-.08.47-.16.53-.24.11-.14.17-.43.17-.88v-.2l.05-2.61c0-.5.01-1.49.01-2.96,0-2.14,0-3.71-.02-4.7-.01-1-.05-1.56-.11-1.69-.04-.09-.11-.16-.21-.22s-.43-.15-1.03-.28l-1.2-.27v-.66c1.39.08,3.05.12,4.99.12,1.06,0,3.58-.04,7.55-.12.01,1.28.1,2.55.27,3.8h-.78c-.3-1.01-.54-1.68-.72-2.01-.13-.23-.28-.38-.47-.46-.24-.1-.79-.14-1.62-.14h-4.49l-.08,3.58-.03,2.19Z"/>
    <path d="M388.48,467.44v-.66c1.96.08,3.54.12,4.72.12.68,0,1.32,0,1.91-.02.78-.03,1.33-.04,1.63-.04,1.44,0,2.53.34,3.27,1.02.73.69,1.09,1.62,1.09,2.79,0,.79-.17,1.48-.49,2.08-.33.6-.81,1.11-1.43,1.53-.45.3-1.1.56-1.93.79l3.7,4.82c.46.6.75.95.87,1.05.19.16.43.29.72.4.41.16,1.11.35,2.1.57v.66c-1.17-.08-2.02-.12-2.55-.12-.61,0-1.24.04-1.89.12-.33-.56-.79-1.25-1.36-2.09-.57-.84-.92-1.34-1.04-1.49-.07-.09-.14-.18-.21-.28l-2.44-3.35c-.66-.01-1.33-.06-2-.14l.09,5.6c.02.22.08.39.2.5.18.15.73.31,1.67.48.13.02.34.07.61.13v.66c-1.34-.08-2.52-.12-3.54-.12-1.1,0-2.32.04-3.68.12v-.66l.48-.1c1.06-.2,1.66-.37,1.8-.49.14-.13.23-.36.25-.69.01-.21.03-2.12.06-5.71l-.04-5.22c0-.8-.03-1.26-.06-1.38-.03-.12-.11-.21-.22-.27-.36-.19-.94-.35-1.72-.48-.12-.02-.3-.06-.54-.11ZM393.14,474.23c.77.08,1.37.12,1.79.12,1.35,0,2.35-.3,2.99-.9s.97-1.43.97-2.5c0-.93-.29-1.67-.86-2.21-.57-.54-1.41-.81-2.5-.81-.39,0-1.17.04-2.32.13l-.07,6.17Z"/>
    <path d="M420.27,482.87h-.73c-.96-2.82-2.14-6-3.52-9.54-1.16-2.95-1.81-4.57-1.98-4.88-.11-.2-.24-.35-.4-.46s-.71-.29-1.65-.56v-.66c1.6.08,2.65.12,3.15.12.72,0,1.77-.04,3.15-.12v.66c-.13.04-.23.06-.3.08-.73.18-1.15.32-1.28.43-.13.11-.19.23-.19.37,0,.07.01.16.03.25.13.54.69,2.14,1.66,4.81l2.11,5.81c.91-2.36,1.71-4.54,2.39-6.54.86-2.51,1.32-3.9,1.38-4.18.01-.06.02-.11.02-.16,0-.14-.06-.26-.17-.34-.16-.12-.7-.31-1.62-.55v-.62s.31.01.8.03c1.14.06,1.87.09,2.2.09.63,0,1.38-.04,2.25-.12v.62c-.77.2-1.26.38-1.47.53-.21.15-.42.48-.64.99-.45,1.02-1.59,4.04-3.41,9.04l-1.79,4.91Z"/>
    <path d="M443.29,466.52h.7c1,2.57,2.23,5.48,3.69,8.74l2.59,5.65c.12.2.25.35.39.44.1.07.64.24,1.63.53v.66c-1.35-.08-2.34-.12-2.98-.12s-1.76.04-3.33.12v-.66c.9-.18,1.42-.33,1.57-.44.15-.11.22-.24.22-.39s-.08-.42-.23-.79l-1.13-2.71c-1.57-.01-2.71-.02-3.43-.02l-3.04.02-1.17,2.81c-.19.45-.29.73-.29.84,0,.1.05.18.14.24s.52.18,1.29.34c.08.02.2.06.34.1v.66c-1.27-.08-2.16-.12-2.68-.12-.66,0-1.5.04-2.53.12v-.66c.67-.15,1.14-.31,1.39-.5.19-.14.38-.38.58-.71.42-.73,1.5-3.09,3.22-7.07l3.05-7.09ZM440.36,476.44c1.03.03,1.76.04,2.21.04.13,0,1.27-.01,3.41-.04l-2.81-6.66-2.8,6.66Z"/>
    <path d="M462.18,467.44v-.66c.94.08,1.68.12,2.22.12.44,0,1.21-.04,2.34-.12l3.15,3.94c.29.35,2.52,3.05,6.69,8.1,0-1.04.01-1.79.01-2.25,0-1.1-.03-3.12-.1-6.05-.03-1.37-.06-2.11-.11-2.23-.04-.12-.13-.23-.25-.32-.13-.1-.65-.23-1.55-.4-.12-.02-.29-.06-.52-.12v-.66c1.32.08,2.37.12,3.14.12s1.8-.04,3.13-.12v.66c-.2.05-.35.08-.44.1-.99.21-1.54.34-1.65.41-.08.04-.15.11-.2.2-.07.12-.13.34-.16.67,0,.14-.02,1.15-.05,3.03-.03,1.88-.04,3.69-.04,5.45,0,2.07.04,3.82.11,5.25l-.72.33-4.63-5.75-6.07-7.31.06,6.56c.04,2.87.08,4.41.12,4.6.03.13.1.25.2.34.16.15.71.3,1.66.47.11.01.28.05.5.1v.66c-1.13-.08-2.09-.12-2.87-.12-.65,0-1.79.04-3.41.12v-.66c.26-.06.46-.1.59-.13.89-.16,1.4-.3,1.54-.43.08-.07.14-.18.18-.34.07-.34.12-1.63.16-3.87.04-3.17.06-5.04.06-5.62,0-1.86-.03-2.89-.08-3.1-.03-.15-.13-.27-.29-.37-.16-.1-.86-.25-2.1-.46-.13-.02-.33-.06-.6-.12Z"/>
    <path d="M505.52,479.84l.47.84c-1.19.75-2.33,1.3-3.43,1.65s-2.23.53-3.39.53c-1.49,0-2.83-.34-4.05-1.02-1.21-.68-2.13-1.64-2.76-2.88-.62-1.24-.94-2.62-.94-4.12,0-2.47.8-4.48,2.41-6.05,1.61-1.57,3.74-2.35,6.38-2.35,1.63,0,3.44.33,5.43,1-.01.65-.02,1.14-.02,1.47,0,.95.06,1.94.17,2.99h-.93c-.27-1.3-.57-2.19-.88-2.68-.31-.49-.81-.88-1.51-1.17-.7-.29-1.55-.44-2.57-.44-2.15,0-3.76.76-4.85,2.29-.84,1.19-1.26,2.69-1.26,4.49,0,2.15.59,3.84,1.78,5.08,1.19,1.24,2.74,1.86,4.67,1.86.83,0,1.63-.11,2.42-.32.78-.21,1.74-.6,2.86-1.17Z"/>
    <path d="M521.39,482.54v-.66c.26-.05.45-.09.58-.11.92-.15,1.47-.3,1.67-.44.11-.09.2-.31.25-.67.06-.36.09-1.4.09-3.13v-1.49c-.63-.99-1.66-2.55-3.1-4.69l-2.02-2.93c-.15-.17-.33-.31-.54-.43-.33-.19-.88-.37-1.64-.56v-.66c1.17.08,2.21.12,3.12.12s1.98-.04,3.27-.12v.66c-.85.21-1.34.37-1.47.47-.13.1-.19.2-.19.3,0,.1.06.25.19.47.67,1.15,1.93,3.16,3.8,6.03.93-1.48,2.15-3.5,3.65-6.06.16-.26.23-.44.23-.53,0-.1-.04-.18-.12-.23-.24-.15-.76-.29-1.55-.43v-.66c1.35.08,2.34.12,2.95.12.74,0,1.65-.04,2.73-.12v.66c-.91.18-1.55.39-1.93.63-.38.24-.83.75-1.34,1.52-1.12,1.67-2.46,3.75-4.01,6.22,0,.37-.01.59-.01.66,0,2.58.02,4,.04,4.26.03.26.11.45.24.57.21.16.83.34,1.87.52.09.01.22.04.39.08v.66c-1.38-.08-2.49-.12-3.34-.12-.68,0-1.94.04-3.79.12Z"/>
  </g>
</svg>